<svg width="17" height="16" viewBox="0 0 17 16" fill="none" xmlns="http://www.w3.org/2000/svg">
<path d="M14.1325 8.00161C14.1325 7.75257 14.0221 7.52153 13.9175 7.34804C13.8046 7.16083 13.6529 6.96755 13.4864 6.7791C13.1524 6.40105 12.7166 5.99506 12.2937 5.62782C11.8683 5.25841 11.4443 4.91827 11.1277 4.67109C10.9691 4.54729 10.8367 4.44634 10.7438 4.37613C10.6973 4.34101 10.6607 4.31357 10.6354 4.29477L10.6064 4.27318L10.5987 4.26748L10.596 4.2655C10.3737 4.10173 10.0604 4.14899 9.89662 4.37133C9.73285 4.59365 9.78031 4.90664 10.0026 5.07042L10.0111 5.07669L10.0378 5.09654C10.0614 5.11414 10.0964 5.1403 10.141 5.17404C10.2304 5.24154 10.3585 5.33927 10.5124 5.45939C10.8207 5.70003 11.2301 6.02863 11.638 6.38287C12.0484 6.73926 12.446 7.11181 12.737 7.44119C12.7554 7.46203 12.7732 7.4825 12.7904 7.5026L2.96582 7.50261C2.68968 7.50261 2.46582 7.72646 2.46582 8.0026C2.46582 8.27875 2.68968 8.50261 2.96582 8.50261L12.7887 8.5026C12.772 8.52207 12.7548 8.54189 12.737 8.56204C12.446 8.89142 12.0484 9.26397 11.638 9.62037C11.2301 9.9746 10.8207 10.3032 10.5124 10.5438C10.3585 10.664 10.2304 10.7617 10.141 10.8292C10.0964 10.8629 10.0614 10.8891 10.0378 10.9067L10.0111 10.9265L10.0026 10.9328C9.78031 11.0966 9.73285 11.4096 9.89662 11.6319C10.0604 11.8542 10.3737 11.9015 10.596 11.7377L10.5987 11.7358L10.6064 11.7301L10.6354 11.7085C10.6607 11.6897 10.6973 11.6622 10.7438 11.6271C10.8367 11.5569 10.9691 11.4559 11.1277 11.3321C11.4444 11.085 11.8683 10.7448 12.2937 10.3754C12.7166 10.0082 13.1524 9.60219 13.4864 9.22414C13.6529 9.03569 13.8046 8.8424 13.9175 8.65519C14.0214 8.48275 14.1312 8.25343 14.1325 8.0061" fill="white"/>
</svg>
