<svg width="20" height="20" viewBox="0 0 20 20" fill="none" xmlns="http://www.w3.org/2000/svg">
<path d="M10.0002 16.6654C9.54183 16.6654 9.14947 16.5022 8.82308 16.1758C8.49669 15.8494 8.3335 15.457 8.3335 14.9987C8.3335 14.5404 8.49669 14.148 8.82308 13.8216C9.14947 13.4952 9.54183 13.332 10.0002 13.332C10.4585 13.332 10.8509 13.4952 11.1772 13.8216C11.5036 14.148 11.6668 14.5404 11.6668 14.9987C11.6668 15.457 11.5036 15.8494 11.1772 16.1758C10.8509 16.5022 10.4585 16.6654 10.0002 16.6654ZM10.0002 11.6654C9.54183 11.6654 9.14947 11.5022 8.82308 11.1758C8.49669 10.8494 8.3335 10.457 8.3335 9.9987C8.3335 9.54036 8.49669 9.148 8.82308 8.82161C9.14947 8.49523 9.54183 8.33203 10.0002 8.33203C10.4585 8.33203 10.8509 8.49523 11.1772 8.82161C11.5036 9.148 11.6668 9.54036 11.6668 9.9987C11.6668 10.457 11.5036 10.8494 11.1772 11.1758C10.8509 11.5022 10.4585 11.6654 10.0002 11.6654ZM10.0002 6.66536C9.54183 6.66536 9.14947 6.50217 8.82308 6.17578C8.49669 5.84939 8.3335 5.45703 8.3335 4.9987C8.3335 4.54036 8.49669 4.148 8.82308 3.82161C9.14947 3.49523 9.54183 3.33203 10.0002 3.33203C10.4585 3.33203 10.8509 3.49523 11.1772 3.82161C11.5036 4.148 11.6668 4.54036 11.6668 4.9987C11.6668 5.45703 11.5036 5.84939 11.1772 6.17578C10.8509 6.50217 10.4585 6.66536 10.0002 6.66536Z" fill="#1D1B20"/>
</svg>
