<svg width="20" height="20" viewBox="0 0 20 20" fill="none" xmlns="http://www.w3.org/2000/svg">
<g id="building-architecture-and-city-svgrepo-com 1" clip-path="url(#clip0_37_3345)">
<g id="Group">
<g id="Group_2">
<path id="Vector" d="M19.0909 4.24242H12.7273V0.909102C12.7273 0.407031 12.3202 0 11.8182 0H0.909102C0.407031 0 0 0.407031 0 0.909102V19.0909C0 19.593 0.407031 20 0.909102 20H8.18184H11.8182H19.0909C19.593 20 20 19.593 20 19.0909V5.15152C20 4.64945 19.593 4.24242 19.0909 4.24242ZM12.7271 6.06062V7.87879H9.0909V6.06062H12.7271ZM12.7271 9.69695V11.5148L9.0909 11.5144V9.69695H12.7271ZM7.27273 5.15152V8.7832C7.27273 8.78477 7.2725 8.78629 7.2725 8.78789C7.2725 8.78949 7.27273 8.79098 7.27273 8.79254V12.4187C7.27273 12.4202 7.2725 12.4218 7.2725 12.4233C7.2725 12.4249 7.27273 12.4264 7.27273 12.428V18.1818H5.45457V17.2723C5.45457 16.7703 5.04754 16.3632 4.54547 16.3632C4.0434 16.3632 3.63637 16.7703 3.63637 17.2723V18.1818H1.81816V1.81816H10.9091V4.24242H8.1818C7.67977 4.24242 7.27273 4.64945 7.27273 5.15152ZM18.1818 18.1818H14.5455V17.2724C14.5455 16.7703 14.1384 16.3633 13.6364 16.3633C13.1343 16.3633 12.7273 16.7703 12.7273 17.2724V18.1818H11.8182H9.0909V13.3326L13.6251 13.3331C13.6288 13.3331 13.6325 13.3336 13.6363 13.3336C13.64 13.3336 13.6436 13.3331 13.6474 13.3331L18.1818 13.3335L18.1818 18.1818ZM18.1818 11.5154L14.5454 11.515V9.69699H18.1818V11.5154ZM18.1818 7.87879H14.5454V6.06062H18.1818V7.87879Z" fill="#737B8B"/>
</g>
</g>
</g>
<defs>
<clipPath id="clip0_37_3345">
<rect width="20" height="20" fill="white"/>
</clipPath>
</defs>
</svg>
