<svg width="52" height="53" viewBox="0 0 52 53" fill="none" xmlns="http://www.w3.org/2000/svg">
<g clip-path="url(#clip0_258_8158)">
<path d="M26.2027 41.627C26.2031 38.8418 27.0152 36.1171 28.5397 33.7862C30.0643 31.4553 32.2352 29.6193 34.7868 28.5028C37.3384 27.3863 40.1601 27.0377 42.9068 27.4997C45.6534 27.9617 48.2058 29.2143 50.2517 31.1041C50.3194 26.2081 50.2788 21.3121 50.1298 16.4161C50.0486 13.0524 48.1494 9.67542 44.9674 8.00675C43.3323 7.14245 41.6382 6.31065 39.9248 5.52253C33.1547 7.71221 25.2257 10.6007 17.2287 14.1767C16.4598 14.5165 15.8011 15.0644 15.3268 15.7585C14.8526 16.4525 14.5816 17.2653 14.5444 18.1051C14.4195 21.9645 14.3809 25.9478 14.4316 29.8864C14.4357 30.0019 14.4027 30.1156 14.3373 30.211C14.272 30.3063 14.1778 30.3782 14.0686 30.416C13.9594 30.4539 13.8409 30.4557 13.7306 30.4212C13.6202 30.3868 13.5239 30.3178 13.4556 30.2246C12.6093 29.1412 11.7826 28.0701 10.9755 27.0111C10.9159 26.9283 10.8273 26.871 10.7274 26.8505C10.6275 26.83 10.5235 26.8478 10.4362 26.9004C9.80852 27.2742 9.19203 27.6428 8.58672 28.0064C8.2475 28.2096 7.83008 27.9384 7.82805 27.521C7.80773 23.5976 7.90523 19.6641 8.11547 15.8514C8.20383 14.2437 9.21234 12.7294 10.7043 11.9921C18.3743 8.20378 26.5572 5.10917 33.5396 2.81893C31.9146 2.18315 30.2987 1.60018 28.7215 1.04768C26.5948 0.317439 24.2852 0.317439 22.1585 1.04768C16.8955 2.86362 11.1481 5.23409 5.91156 8.00675C2.73063 9.67542 0.833438 13.0524 0.749141 16.4161C0.541953 23.1396 0.541953 29.863 0.749141 36.5864C0.830391 39.9502 2.73063 43.3271 5.91156 44.9958C11.1481 47.7685 16.8955 50.1389 22.1616 51.9539C24.2883 52.6841 26.5978 52.6841 28.7245 51.9539C29.1843 51.7954 29.6484 51.6319 30.117 51.4633C27.5954 48.8102 26.1935 45.2872 26.2027 41.627Z" fill="#0091B4"/>
<path d="M40.5305 30.7539C38.3798 30.7541 36.2774 31.3921 34.4892 32.5871C32.7011 33.7822 31.3075 35.4806 30.4846 37.4677C29.6617 39.4548 29.4466 41.6413 29.8664 43.7507C30.2862 45.86 31.322 47.7976 32.843 49.3182C34.3639 50.8389 36.3016 51.8744 38.4111 52.2938C40.5205 52.7131 42.7069 52.4976 44.6939 51.6744C46.6808 50.8511 48.379 49.4572 49.5737 47.6688C50.7685 45.8804 51.406 43.7779 51.4058 41.6272C51.4057 40.1992 51.1243 38.7851 50.5777 37.4659C50.0311 36.1466 49.23 34.9479 48.2201 33.9382C47.2102 32.9285 46.0114 32.1276 44.692 31.5813C43.3726 31.0349 41.9585 30.7538 40.5305 30.7539ZM46.7329 39.8275L40.1964 46.6911C40.0185 46.8782 39.8046 47.0274 39.5676 47.1297C39.3306 47.232 39.0753 47.2852 38.8172 47.2862H38.808C38.5514 47.2861 38.2974 47.2345 38.061 47.1346C37.8246 47.0346 37.6107 46.8883 37.4318 46.7043L33.9635 43.1313C33.6093 42.7663 33.4146 42.2756 33.4222 41.7671C33.4298 41.2585 33.6391 40.7738 34.0041 40.4196C34.3691 40.0654 34.8598 39.8707 35.3684 39.8783C35.8769 39.8859 36.3616 40.0953 36.7158 40.4602L38.7968 42.6022L43.9572 37.1828C44.3121 36.8351 44.788 36.6387 45.2847 36.635C45.7815 36.6312 46.2603 36.8204 46.6204 37.1627C46.9804 37.505 47.1936 37.9736 47.2149 38.4699C47.2363 38.9662 47.0642 39.4515 46.735 39.8234L46.7329 39.8275Z" fill="#0091B4"/>
</g>
<defs>
<clipPath id="clip0_258_8158">
<rect width="52" height="52" fill="white" transform="translate(0 0.5)"/>
</clipPath>
</defs>
</svg>
