<svg width="29" height="28" viewBox="0 0 29 28" fill="none" xmlns="http://www.w3.org/2000/svg">
<g clip-path="url(#clip0_259_11503)">
<mask id="mask0_259_11503" style="mask-type:luminance" maskUnits="userSpaceOnUse" x="0" y="0" width="29" height="28">
<path d="M0.900391 1.90735e-06H28.9004V28H0.900391V1.90735e-06Z" fill="white"/>
</mask>
<g mask="url(#mask0_259_11503)">
<path d="M6.36914 1.09375V5.46875H1.99414" stroke="#067647" stroke-width="2" stroke-miterlimit="10"/>
</g>
<path d="M5.27539 11.8125H11.8379" stroke="#067647" stroke-width="2" stroke-miterlimit="10"/>
<path d="M5.27539 16.1875H11.8379" stroke="#067647" stroke-width="2" stroke-miterlimit="10"/>
<path d="M5.27539 20.5625H11.8379" stroke="#067647" stroke-width="2" stroke-miterlimit="10"/>
<mask id="mask1_259_11503" style="mask-type:luminance" maskUnits="userSpaceOnUse" x="0" y="0" width="29" height="28">
<path d="M0.900391 1.90735e-06H28.9004V28H0.900391V1.90735e-06Z" fill="white"/>
</mask>
<g mask="url(#mask1_259_11503)">
<path d="M27.8066 24.7188C27.8066 25.9269 26.8273 26.9062 25.6191 26.9062H16.8691C15.661 26.9062 14.6816 25.9269 14.6816 24.7188V11.5938C14.6816 10.3857 15.661 9.40625 16.8691 9.40625H25.6191C26.8273 9.40625 27.8066 10.3857 27.8066 11.5938V24.7188Z" stroke="#067647" stroke-width="2" stroke-miterlimit="10"/>
<path d="M17.9629 13.7812H24.5254" stroke="#067647" stroke-width="2" stroke-miterlimit="10"/>
<path d="M20.1504 18.1563C20.1504 18.7603 19.6607 19.25 19.0566 19.25C18.4526 19.25 17.9629 18.7603 17.9629 18.1563C17.9629 17.5522 18.4526 17.0625 19.0566 17.0625C19.6607 17.0625 20.1504 17.5522 20.1504 18.1563Z" fill="#067647"/>
<path d="M24.5254 18.1563C24.5254 18.7603 24.0357 19.25 23.4316 19.25C22.8276 19.25 22.3379 18.7603 22.3379 18.1563C22.3379 17.5522 22.8276 17.0625 23.4316 17.0625C24.0357 17.0625 24.5254 17.5522 24.5254 18.1563Z" fill="#067647"/>
<path d="M24.5254 22.5313C24.5254 23.1353 24.0357 23.625 23.4316 23.625C22.8276 23.625 22.3379 23.1353 22.3379 22.5313C22.3379 21.9272 22.8276 21.4375 23.4316 21.4375C24.0357 21.4375 24.5254 21.9272 24.5254 22.5313Z" fill="#067647"/>
<path d="M20.1504 22.5313C20.1504 23.1353 19.6607 23.625 19.0566 23.625C18.4526 23.625 17.9629 23.1353 17.9629 22.5313C17.9629 21.9272 18.4526 21.4375 19.0566 21.4375C19.6607 21.4375 20.1504 21.9272 20.1504 22.5313Z" fill="#067647"/>
<path d="M10.7441 26.9062H4.18164C2.97354 26.9062 1.99414 25.9269 1.99414 24.7188V5.46875C1.99414 3.05249 3.95288 1.09375 6.36914 1.09375H19.0566C20.2648 1.09375 21.2441 2.07315 21.2441 3.28125V5.46875" stroke="#067647" stroke-width="2" stroke-miterlimit="10" stroke-linecap="square"/>
</g>
</g>
<defs>
<clipPath id="clip0_259_11503">
<rect width="28" height="28" fill="white" transform="translate(0.900391)"/>
</clipPath>
</defs>
</svg>
