<svg width="29" height="28" viewBox="0 0 29 28" fill="none" xmlns="http://www.w3.org/2000/svg">
<path d="M15.5743 10.5438V9.62508H18.1993C19.3597 9.62508 20.4725 9.16414 21.293 8.34366C22.1134 7.52318 22.5744 6.41038 22.5744 5.25004V3.50003C22.5744 3.26796 22.4822 3.0454 22.3181 2.88131C22.154 2.71721 21.9314 2.62502 21.6994 2.62502H18.1993C17.2519 2.61988 16.3292 2.92744 15.5743 3.50003V0.875007C15.5743 0.642941 15.4821 0.420379 15.318 0.256284C15.1539 0.092188 14.9314 0 14.6993 0C14.4672 0 14.2447 0.092188 14.0806 0.256284C13.9165 0.420379 13.8243 0.642941 13.8243 0.875007V1.75001C13.0694 1.17743 12.1467 0.869867 11.1993 0.875007H7.69924C7.46718 0.875007 7.24462 0.967195 7.08052 1.13129C6.91642 1.29539 6.82424 1.51795 6.82424 1.75001V3.50003C6.82424 4.66036 7.28518 5.77317 8.10565 6.59365C8.92613 7.41413 10.0389 7.87507 11.1993 7.87507H13.8243V10.5438C11.5907 10.7683 9.52885 11.8427 8.06513 13.5447C6.60142 15.2466 5.84782 17.4461 5.9602 19.6881C6.07258 21.9301 7.04235 24.0432 8.66893 25.5903C10.2955 27.1374 12.4545 28.0001 14.6993 28.0001C16.9441 28.0001 19.1031 27.1374 20.7297 25.5903C22.3563 24.0432 23.326 21.9301 23.4384 19.6881C23.5508 17.4461 22.7972 15.2466 21.3335 13.5447C19.8698 11.8427 17.8079 10.7683 15.5743 10.5438ZM18.1993 4.41879H20.8244V5.25004C20.8244 5.94624 20.5478 6.61393 20.0555 7.10622C19.5632 7.5985 18.8955 7.87507 18.1993 7.87507H15.5743V7.00006C15.5743 6.30386 15.8509 5.63618 16.3432 5.14389C16.8354 4.6516 17.5031 4.37504 18.1993 4.37504V4.41879ZM8.57425 3.50003V2.62502H11.1993C11.8955 2.62502 12.5632 2.90159 13.0554 3.39387C13.5477 3.88616 13.8243 4.55385 13.8243 5.25004V6.12505H11.1993C10.5031 6.12505 9.83539 5.84849 9.3431 5.3562C8.85081 4.86391 8.57425 4.19623 8.57425 3.50003ZM14.6993 26.2502C13.3148 26.2502 11.9614 25.8397 10.8103 25.0705C9.65912 24.3013 8.76191 23.2081 8.23209 21.929C7.70227 20.6499 7.56365 19.2424 7.83375 17.8845C8.10385 16.5266 8.77054 15.2794 9.74951 14.3004C10.7285 13.3214 11.9758 12.6547 13.3337 12.3846C14.6915 12.1145 16.099 12.2531 17.3781 12.783C18.6572 13.3128 19.7505 14.21 20.5196 15.3611C21.2888 16.5123 21.6994 17.8657 21.6994 19.2502C21.6994 21.1067 20.9619 22.8872 19.6491 24.2C18.3363 25.5127 16.5558 26.2502 14.6993 26.2502Z" fill="#1B8354"/>
<path d="M14.6992 16.625H16.4493C16.6813 16.625 16.9039 16.5328 17.068 16.3687C17.2321 16.2046 17.3243 15.9821 17.3243 15.75C17.3243 15.5179 17.2321 15.2954 17.068 15.1313C16.9039 14.9672 16.6813 14.875 16.4493 14.875H15.5742C15.5742 14.6429 15.4821 14.4204 15.318 14.2563C15.1539 14.0922 14.9313 14 14.6992 14C14.4672 14 14.2446 14.0922 14.0805 14.2563C13.9164 14.4204 13.8242 14.6429 13.8242 14.875V15.0325C13.2455 15.2425 12.759 15.6492 12.4498 16.1815C12.1406 16.7138 12.0282 17.3379 12.1325 17.9446C12.2367 18.5514 12.5509 19.1022 13.0201 19.5007C13.4893 19.8993 14.0836 20.1203 14.6992 20.1251C14.9313 20.1251 15.1539 20.2172 15.318 20.3813C15.4821 20.5454 15.5742 20.768 15.5742 21.0001C15.5742 21.2321 15.4821 21.4547 15.318 21.6188C15.1539 21.7829 14.9313 21.8751 14.6992 21.8751H12.9492C12.7172 21.8751 12.4946 21.9673 12.3305 22.1314C12.1664 22.2954 12.0742 22.518 12.0742 22.7501C12.0742 22.9821 12.1664 23.2047 12.3305 23.3688C12.4946 23.5329 12.7172 23.6251 12.9492 23.6251H13.8242C13.8242 23.8571 13.9164 24.0797 14.0805 24.2438C14.2446 24.4079 14.4672 24.5001 14.6992 24.5001C14.9313 24.5001 15.1539 24.4079 15.318 24.2438C15.4821 24.0797 15.5742 23.8571 15.5742 23.6251V23.4676C16.153 23.2576 16.6394 22.8509 16.9487 22.3186C17.2579 21.7863 17.3702 21.1622 17.266 20.5555C17.1617 19.9487 16.8476 19.3979 16.3784 18.9994C15.9092 18.6008 15.3148 18.3798 14.6992 18.375C14.4672 18.375 14.2446 18.2828 14.0805 18.1188C13.9164 17.9547 13.8242 17.7321 13.8242 17.5C13.8242 17.268 13.9164 17.0454 14.0805 16.8813C14.2446 16.7172 14.4672 16.625 14.6992 16.625Z" fill="#1B8354"/>
<path d="M5.69519 6.37993L3.94517 4.62992C3.86383 4.54791 3.76705 4.48281 3.66042 4.43839C3.55379 4.39397 3.43943 4.37109 3.32392 4.37109C3.2084 4.37109 3.09404 4.39397 2.98741 4.43839C2.88078 4.48281 2.784 4.54791 2.70266 4.62992L0.952645 6.37993C0.787878 6.5447 0.695312 6.76817 0.695312 7.00119C0.695313 7.23421 0.787878 7.45768 0.952645 7.62245C1.11741 7.78721 1.34088 7.87978 1.5739 7.87978C1.80692 7.87978 2.03039 7.78721 2.19516 7.62245L2.44891 7.35994V9.62621C2.44891 9.85828 2.5411 10.0808 2.70519 10.2449C2.86929 10.409 3.09185 10.5012 3.32392 10.5012C3.55598 10.5012 3.77854 10.409 3.94264 10.2449C4.10673 10.0808 4.19892 9.85828 4.19892 9.62621V7.35994L4.45268 7.62245C4.53402 7.70446 4.6308 7.76955 4.73742 7.81398C4.84405 7.8584 4.95842 7.88127 5.07393 7.88127C5.18944 7.88127 5.30381 7.8584 5.41044 7.81398C5.51707 7.76955 5.61384 7.70446 5.69519 7.62245C5.7772 7.5411 5.84229 7.44433 5.88672 7.3377C5.93114 7.23107 5.95401 7.1167 5.95401 7.00119C5.95401 6.88568 5.93114 6.77131 5.88672 6.66468C5.84229 6.55805 5.7772 6.46128 5.69519 6.37993Z" fill="#1B8354"/>
<path d="M28.4452 11.6299L26.6952 9.87992C26.6138 9.79791 26.5171 9.73281 26.4104 9.68839C26.3038 9.64397 26.1894 9.62109 26.0739 9.62109C25.9584 9.62109 25.844 9.64397 25.7374 9.68839C25.6308 9.73281 25.534 9.79791 25.4527 9.87992L23.7026 11.6299C23.6211 11.7115 23.5563 11.8084 23.5122 11.915C23.468 12.0216 23.4453 12.1358 23.4453 12.2512C23.4453 12.4842 23.5379 12.7077 23.7026 12.8724C23.8674 13.0372 24.0909 13.1298 24.3239 13.1298C24.4393 13.1298 24.5535 13.1071 24.6601 13.0629C24.7667 13.0187 24.8636 12.954 24.9452 12.8724L25.1989 12.6099V14.8762C25.1989 15.1083 25.2911 15.3308 25.4552 15.4949C25.6193 15.659 25.8418 15.7512 26.0739 15.7512C26.306 15.7512 26.5285 15.659 26.6926 15.4949C26.8567 15.3308 26.9489 15.1083 26.9489 14.8762V12.6099L27.2027 12.8724C27.284 12.9545 27.3808 13.0196 27.4874 13.064C27.594 13.1084 27.7084 13.1313 27.8239 13.1313C27.9394 13.1313 28.0538 13.1084 28.1604 13.064C28.2671 13.0196 28.3638 12.9545 28.4452 12.8724C28.5272 12.7911 28.5923 12.6943 28.6367 12.5877C28.6811 12.4811 28.704 12.3667 28.704 12.2512C28.704 12.1357 28.6811 12.0213 28.6367 11.9147C28.5923 11.8081 28.5272 11.7113 28.4452 11.6299Z" fill="#1B8354"/>
</svg>
