<svg width="29" height="28" viewBox="0 0 29 28" fill="none" xmlns="http://www.w3.org/2000/svg">
<g clip-path="url(#clip0_259_11375)">
<path d="M28.0457 16.8384C28.0455 16.8145 28.0444 16.7903 28.0421 16.7664C28.0416 16.7609 28.0408 16.7557 28.0403 16.7502C28.0378 16.7284 28.0346 16.7068 28.0303 16.685C28.0295 16.6803 28.0284 16.6756 28.0273 16.6707C28.023 16.6513 28.0179 16.6318 28.0124 16.6126C28.0102 16.6051 28.0079 16.5974 28.0055 16.59C27.9993 16.571 27.9925 16.5519 27.9848 16.5331L27.9829 16.5282C27.982 16.5261 27.9812 16.5242 27.9803 16.5222L23.0629 4.50189C23.0627 4.50104 23.0623 4.50018 23.0619 4.49954C23.0582 4.49057 23.0542 4.48224 23.0501 4.47348C23.0439 4.46002 23.0377 4.44656 23.0309 4.43353C23.0264 4.42499 23.0217 4.41666 23.017 4.40833C23.0091 4.39444 23.0008 4.38098 22.9922 4.36752C22.9882 4.36111 22.9839 4.35449 22.9796 4.34808C22.9662 4.32843 22.9521 4.30942 22.9371 4.29126C22.9363 4.29019 22.9354 4.28934 22.9345 4.28827C22.92 4.27097 22.9048 4.2543 22.889 4.23828C22.8841 4.23337 22.8792 4.22867 22.8743 4.22376C22.8617 4.21158 22.8489 4.20004 22.8356 4.18872C22.8299 4.18381 22.8243 4.17889 22.8185 4.17441C22.8027 4.16159 22.7865 4.14941 22.7698 4.13788C22.7668 4.13574 22.7639 4.13339 22.7607 4.13126C22.7419 4.11865 22.7224 4.10712 22.7028 4.09601C22.6946 4.09152 22.6865 4.08746 22.6784 4.0834C22.6654 4.07678 22.6521 4.07037 22.6389 4.06439C22.6299 4.06033 22.6209 4.05627 22.6118 4.05264C22.5962 4.04623 22.5801 4.04068 22.5641 4.03513C22.556 4.03256 22.5481 4.02957 22.54 4.02722C22.5197 4.02103 22.499 4.01569 22.478 4.0112C22.4697 4.00949 22.4612 4.008 22.4526 4.0065C22.4359 4.0033 22.4193 4.00073 22.4022 3.9986C22.3943 3.99774 22.3864 3.99667 22.3785 3.99603C22.3537 3.99368 22.3289 3.99219 22.3039 3.99219H17.2233C16.8582 2.57864 15.572 1.53125 14.0461 1.53125C12.52 1.53125 11.2338 2.57864 10.8687 3.99219H5.7883C5.76309 3.99219 5.73831 3.99368 5.71353 3.99603C5.70541 3.99667 5.69751 3.99774 5.68961 3.9986C5.67273 4.00073 5.65585 4.0033 5.63919 4.00629C5.63065 4.008 5.62231 4.00928 5.61377 4.0112C5.59305 4.01569 5.57233 4.02103 5.55203 4.02701C5.5437 4.02957 5.5358 4.03235 5.52768 4.03513C5.51166 4.04047 5.49585 4.04623 5.48026 4.05243C5.47107 4.05627 5.4621 4.06012 5.45313 4.06418C5.43967 4.07016 5.42664 4.07657 5.41361 4.08319C5.40549 4.08746 5.39716 4.09152 5.38925 4.09601C5.36939 4.10712 5.34995 4.11865 5.33115 4.13126C5.32816 4.13339 5.32517 4.13574 5.32196 4.13788C5.3053 4.14941 5.28906 4.16159 5.27325 4.17419C5.26749 4.17889 5.26193 4.18381 5.25638 4.18851C5.24313 4.19983 5.23032 4.21158 5.21771 4.22376C5.2128 4.22845 5.20767 4.23315 5.20297 4.23807C5.18716 4.2543 5.172 4.27075 5.15747 4.28827C5.15662 4.28912 5.15576 4.29019 5.15491 4.29105C5.13995 4.30942 5.12585 4.32843 5.1124 4.34808C5.10791 4.35428 5.10385 4.3609 5.09958 4.36752C5.09103 4.38077 5.0827 4.39444 5.07501 4.40811C5.0701 4.41644 5.06561 4.42477 5.06113 4.43332C5.05429 4.44656 5.04788 4.46002 5.04169 4.47348C5.03784 4.48203 5.03357 4.49057 5.02994 4.49933C5.02972 4.50018 5.0293 4.50104 5.02887 4.50189L0.111481 16.522C0.110626 16.5242 0.109985 16.5261 0.109131 16.528L0.106995 16.5331C0.0993042 16.5517 0.0926819 16.571 0.0864868 16.59C0.0839233 16.5974 0.0817871 16.6051 0.0794372 16.6126C0.0738831 16.6318 0.0687561 16.6513 0.0646973 16.6707C0.0636292 16.6754 0.0625611 16.6803 0.0614929 16.685C0.0574341 16.7066 0.0542298 16.7284 0.0516663 16.7502C0.0510254 16.7555 0.0503845 16.7609 0.0497437 16.7662C0.0476074 16.7903 0.0463257 16.8145 0.0461121 16.8384C0.0461121 16.8403 0.0458984 16.842 0.0458984 16.8438C0.0458984 19.7084 2.62177 22.0391 5.78809 22.0391C8.95441 22.0391 11.5303 19.7084 11.5303 16.8438C11.5303 16.8418 11.5301 16.8401 11.5301 16.8384C11.5298 16.8145 11.5286 16.7903 11.5264 16.7662C11.5258 16.7609 11.5251 16.7555 11.5245 16.7502C11.5219 16.7284 11.5187 16.7066 11.5147 16.685C11.5136 16.6803 11.5125 16.6754 11.5115 16.6707C11.5074 16.6513 11.5023 16.6318 11.4967 16.6126C11.4944 16.6051 11.4922 16.5974 11.4897 16.59C11.4835 16.571 11.4769 16.5519 11.4692 16.5331L11.467 16.528C11.4662 16.5261 11.4655 16.5242 11.4647 16.522L7.01001 5.63281H10.8685C11.166 6.78424 12.0744 7.69257 13.2256 7.98993V24.8828H10.2178C9.76489 24.8828 9.39746 25.25 9.39746 25.7031C9.39746 26.1562 9.76489 26.5234 10.2178 26.5234H17.874C18.3271 26.5234 18.6943 26.1562 18.6943 25.7031C18.6943 25.25 18.3271 24.8828 17.874 24.8828H14.8662V7.98993C16.0176 7.69235 16.926 6.78424 17.2233 5.63281H21.0818L16.6271 16.5222C16.6263 16.5242 16.6256 16.5263 16.6245 16.5282L16.6226 16.5331C16.6149 16.5519 16.6083 16.571 16.6019 16.5902C16.5996 16.5977 16.5974 16.6051 16.5951 16.6126C16.5895 16.6321 16.5844 16.6513 16.5801 16.6709C16.579 16.6756 16.5782 16.6803 16.5771 16.6852C16.5728 16.7068 16.5696 16.7286 16.5673 16.7504C16.5667 16.7557 16.5658 16.7611 16.5654 16.7664C16.563 16.7903 16.562 16.8145 16.5617 16.8386C16.5617 16.8403 16.5615 16.842 16.5615 16.8438C16.5615 19.7084 19.1374 22.0391 22.3037 22.0391C25.4698 22.0391 28.0459 19.7084 28.0459 16.8438C28.0461 16.842 28.0457 16.8403 28.0457 16.8384ZM5.7883 20.3984C3.85223 20.3984 2.22528 19.2301 1.79697 17.6641H9.77963C9.35111 19.2301 7.72415 20.3984 5.7883 20.3984ZM2.08814 16.0234L5.7883 6.97907L9.48825 16.0234H2.08814ZM14.0461 6.45313C13.1414 6.45313 12.4055 5.71719 12.4055 4.8125C12.4055 3.90781 13.1414 3.17188 14.0461 3.17188C14.9506 3.17188 15.6867 3.90781 15.6867 4.8125C15.6867 5.71719 14.9506 6.45313 14.0461 6.45313ZM22.3039 6.97907L26.0039 16.0234H18.6038L22.3039 6.97907ZM22.3039 20.3984C20.3679 20.3984 18.7409 19.2301 18.3126 17.6641H26.2953C25.8667 19.2301 24.2398 20.3984 22.3039 20.3984Z" fill="#1B8354"/>
</g>
<defs>
<clipPath id="clip0_259_11375">
<rect width="28" height="28" fill="white" transform="translate(0.100586)"/>
</clipPath>
</defs>
</svg>
