<svg width="29" height="28" viewBox="0 0 29 28" fill="none" xmlns="http://www.w3.org/2000/svg">
<g clip-path="url(#clip0_259_11485)">
<path d="M1.23828 16.8673L3.16738 17.1719C3.42024 18.078 3.78179 18.9502 4.24418 19.7695L3.0952 21.35C2.97262 21.5185 2.91423 21.7253 2.93053 21.9331C2.94683 22.1408 3.03675 22.336 3.18412 22.4833L6.01693 25.3162C6.1643 25.4635 6.35943 25.5534 6.56719 25.5697C6.77496 25.586 6.98173 25.5277 7.15027 25.4051L8.73036 24.2561C9.54971 24.7184 10.422 25.0799 11.3281 25.3327L11.6327 27.2617C11.6653 27.4675 11.7702 27.6549 11.9286 27.7902C12.087 27.9256 12.2885 28 12.4968 28H16.5028C16.7112 28 16.9126 27.9256 17.071 27.7902C17.2294 27.6549 17.3343 27.4675 17.3669 27.2617L17.6719 25.3326C18.578 25.0798 19.4502 24.7182 20.2695 24.2558L21.8496 25.4048C22.0181 25.5274 22.2249 25.5858 22.4326 25.5695C22.6404 25.5532 22.8355 25.4632 22.9829 25.3159L25.8157 22.4831C25.9631 22.3357 26.053 22.1406 26.0693 21.9328C26.0856 21.725 26.0272 21.5183 25.9046 21.3497L24.7558 19.7695C25.2182 18.9502 25.5798 18.078 25.8327 17.1719L27.7615 16.8672C27.9673 16.8346 28.1547 16.7297 28.29 16.5713C28.4254 16.4129 28.4997 16.2114 28.4998 16.0031V11.997C28.4997 11.7887 28.4254 11.5872 28.29 11.4288C28.1547 11.2704 27.9673 11.1655 27.7615 11.133L25.8326 10.8281C25.5798 9.92196 25.2183 9.04973 24.7558 8.23047L25.9048 6.65044C26.0274 6.48189 26.0858 6.27513 26.0695 6.06736C26.0532 5.85959 25.9632 5.66446 25.8159 5.51709L22.9831 2.68428C22.8357 2.53696 22.6407 2.44706 22.433 2.43072C22.2253 2.41439 22.0185 2.47271 21.85 2.5952L20.2695 3.74418C19.4502 3.28182 18.578 2.92026 17.6719 2.66738L17.3673 0.738281C17.3348 0.532467 17.2298 0.345028 17.0714 0.209689C16.9129 0.0743488 16.7114 -6.76346e-06 16.503 4.6143e-10H12.497C12.2887 4.53224e-05 12.0872 0.0744245 11.9288 0.20976C11.7704 0.345095 11.6655 0.532504 11.633 0.738281L11.3281 2.66738C10.422 2.92021 9.54974 3.28177 8.73047 3.74418L7.15 2.5952C6.98145 2.47262 6.77469 2.41423 6.56692 2.43053C6.35915 2.44683 6.16403 2.53675 6.01666 2.68412L3.18384 5.51693C3.03659 5.66432 2.94676 5.85941 2.93051 6.06711C2.91426 6.27482 2.97266 6.48151 3.0952 6.65L4.24418 8.23047C3.7818 9.04977 3.42023 9.92199 3.16733 10.8281L1.23828 11.1327C1.03247 11.1653 0.845028 11.2702 0.709689 11.4287C0.574349 11.5871 0.499993 11.7886 0.5 11.997V16.003C0.499993 16.2114 0.574349 16.4129 0.709689 16.5714C0.845028 16.7298 1.03247 16.8348 1.23828 16.8673ZM2.25 12.7446L4.01094 12.4664C4.1841 12.439 4.34505 12.3603 4.47291 12.2403C4.60078 12.1204 4.68966 11.9648 4.72806 11.7937C4.97839 10.6789 5.41914 9.61566 6.03093 8.65069C6.12466 8.50258 6.17176 8.32974 6.16611 8.15456C6.16047 7.97938 6.10234 7.80993 5.99927 7.66817L4.95025 6.22563L6.72563 4.45025L8.16839 5.49937C8.31017 5.60247 8.47964 5.6606 8.65484 5.66623C8.83005 5.67187 9.00291 5.62475 9.15102 5.53098C10.116 4.9192 11.1793 4.47847 12.2941 4.22816C12.4651 4.18971 12.6206 4.10078 12.7405 3.9729C12.8604 3.84501 12.9391 3.68408 12.9664 3.51094L13.2446 1.75H15.7554L16.0336 3.51094C16.0609 3.68407 16.1397 3.84499 16.2595 3.97286C16.3794 4.10073 16.5349 4.18966 16.7059 4.22811C17.8208 4.47845 18.884 4.91921 19.849 5.53098C19.9971 5.62473 20.17 5.67183 20.3452 5.66619C20.5204 5.66054 20.6898 5.60241 20.8316 5.49932L22.2744 4.45025L24.0498 6.22563L23.0006 7.66839C22.8975 7.81017 22.8394 7.97964 22.8338 8.15484C22.8281 8.33005 22.8753 8.50291 22.969 8.65102C23.5808 9.61597 24.0216 10.6793 24.2718 11.7941C24.3103 11.9651 24.3992 12.1206 24.5271 12.2405C24.655 12.3604 24.8159 12.4391 24.9891 12.4664L26.75 12.7446V15.2554L24.9891 15.5336C24.8159 15.561 24.6549 15.6397 24.5271 15.7597C24.3992 15.8796 24.3103 16.0352 24.2719 16.2063C24.0216 17.3211 23.5808 18.3843 22.969 19.3493C22.8753 19.4974 22.8282 19.6703 22.8338 19.8454C22.8395 20.0206 22.8976 20.1901 23.0007 20.3318L24.0498 21.7746L22.2744 23.5497L20.8316 22.5006C20.6898 22.3975 20.5204 22.3394 20.3452 22.3338C20.17 22.3281 19.9971 22.3752 19.849 22.469C18.884 23.0808 17.8207 23.5215 16.7059 23.7718C16.5349 23.8103 16.3794 23.8992 16.2595 24.0271C16.1396 24.155 16.0609 24.3159 16.0336 24.4891L15.7554 26.25H13.2446L12.9664 24.4891C12.939 24.3159 12.8603 24.155 12.7403 24.0271C12.6204 23.8992 12.4648 23.8103 12.2937 23.7719C11.1789 23.5216 10.1157 23.0809 9.15069 22.4691C9.00259 22.3753 8.82974 22.3282 8.65456 22.3339C8.47938 22.3395 8.30993 22.3977 8.16817 22.5007L6.72563 23.5497L4.95025 21.7744L5.99938 20.3316C6.10247 20.1898 6.1606 20.0204 6.16623 19.8452C6.17187 19.67 6.12475 19.4971 6.03098 19.349C5.4192 18.384 4.97847 17.3207 4.72816 16.2059C4.68971 16.0349 4.60078 15.8794 4.4729 15.7595C4.34501 15.6396 4.18408 15.5609 4.01094 15.5336L2.25 15.2554V12.7446ZM14.5 21.285C18.517 21.285 21.7851 18.017 21.7851 14C21.7851 9.98304 18.517 6.71491 14.5 6.71491C10.483 6.71491 7.21491 9.98298 7.21491 14C7.21491 18.017 10.483 21.285 14.5 21.285ZM8.96491 14C8.96389 12.6529 9.45387 11.3515 10.3431 10.3396C11.2324 9.32764 12.4599 8.67447 13.796 8.50234C15.1321 8.33021 16.4852 8.65091 17.6019 9.40442C18.7186 10.1579 19.5224 11.2926 19.8628 12.596C20.2033 13.8994 20.057 15.2822 19.4515 16.4856C18.8459 17.689 17.8226 18.6304 16.573 19.1336C15.3234 19.6369 13.9332 19.6675 12.6626 19.2197C11.3921 18.7719 10.3283 17.8764 9.67038 16.7009L11.4204 14.5874L13.6426 17.2703C13.7247 17.3694 13.8276 17.4492 13.9441 17.504C14.0606 17.5588 14.1877 17.5872 14.3164 17.5872C14.4452 17.5872 14.5723 17.5588 14.6888 17.504C14.8053 17.4492 14.9082 17.3694 14.9903 17.2703L17.585 14.1374V14.1384C17.5975 14.2526 17.6323 14.3633 17.6876 14.464C17.7428 14.5648 17.8174 14.6537 17.907 14.7256C17.9966 14.7976 18.0995 14.8512 18.2098 14.8833C18.3201 14.9155 18.4357 14.9256 18.5499 14.9131C18.6641 14.9007 18.7748 14.8658 18.8755 14.8105C18.9763 14.7553 19.0652 14.6807 19.1371 14.5911C19.2091 14.5015 19.2626 14.3986 19.2948 14.2883C19.327 14.178 19.3371 14.0624 19.3246 13.9482L19.0997 11.8916C19.0744 11.6609 18.9586 11.4497 18.7776 11.3044C18.5967 11.1592 18.3654 11.0917 18.1348 11.1169L16.0783 11.3422C15.8554 11.3671 15.6506 11.4767 15.5062 11.6483C15.3618 11.8199 15.2888 12.0404 15.3022 12.2643C15.3157 12.4881 15.4146 12.6983 15.5785 12.8513C15.7425 13.0044 15.9589 13.0886 16.1832 13.0867L14.3165 15.3407L12.0944 12.6574C12.0122 12.5583 11.9093 12.4785 11.7928 12.4237C11.6763 12.3689 11.5492 12.3405 11.4205 12.3405C11.2917 12.3405 11.1646 12.3689 11.0481 12.4237C10.9316 12.4785 10.8287 12.5583 10.7466 12.6574L9.01561 14.7476C8.98191 14.4998 8.96497 14.25 8.96491 14Z" fill="#067647"/>
</g>
<defs>
<clipPath id="clip0_259_11485">
<rect width="28" height="28" fill="white" transform="translate(0.5)"/>
</clipPath>
</defs>
</svg>
