<svg width="25" height="28" viewBox="0 0 25 28" fill="none" xmlns="http://www.w3.org/2000/svg">
<path d="M22.4247 0.824219H22.2301C21.3171 0.824219 20.4716 1.33793 19.9681 2.19781C19.7844 2.51186 19.2989 2.54939 19.0686 2.27077C18.3024 1.33793 17.2849 0.824219 16.1972 0.824219C15.1169 0.824219 14.0997 1.33793 13.3326 2.27077C13.123 2.52597 12.6946 2.52657 12.4838 2.27017C11.7167 1.33793 10.6995 0.824219 9.61924 0.824219C8.53898 0.824219 7.52178 1.33793 6.75467 2.27077C6.52469 2.55179 6.0395 2.51246 5.85546 2.19781C5.35106 1.33793 4.50559 0.824219 3.59286 0.824219H3.37579C1.96797 0.824219 0.822266 1.96993 0.822266 3.37774V24.6229C0.822266 26.0307 1.96797 27.1764 3.37579 27.1764H3.59286C4.50529 27.1764 5.35076 26.6627 5.85606 25.8016C6.0383 25.4879 6.52349 25.4476 6.75467 25.7302C7.52178 26.6624 8.53898 27.1761 9.61924 27.1761C10.6995 27.1761 11.7167 26.6624 12.4838 25.7296C12.6946 25.4738 13.123 25.4744 13.3326 25.7302C14.0997 26.6624 15.1169 27.1761 16.2047 27.1761C17.2849 27.1761 18.3027 26.6624 19.0683 25.7308C19.3004 25.4497 19.7856 25.4906 19.9678 25.8016C20.4719 26.6627 21.3174 27.1764 22.2304 27.1764H22.425C23.8328 27.1764 24.9785 26.0307 24.9785 24.6229V3.37804C24.9785 1.96993 23.8325 0.824219 22.4247 0.824219ZM22.7823 24.6229C22.7823 24.8201 22.6219 24.9805 22.4247 24.9805H22.2301C22.0458 24.9805 21.9026 24.7601 21.8629 24.6919C21.3718 23.854 20.4635 23.3334 19.4932 23.3334C18.6696 23.3334 17.8971 23.6985 17.3723 24.3359C17.1744 24.5766 16.7595 24.9802 16.1972 24.9802C15.6423 24.9802 15.2268 24.576 15.0289 24.3359C13.9829 23.0613 11.8347 23.061 10.7875 24.3353C10.5896 24.576 10.1741 24.9802 9.61924 24.9802C9.0644 24.9802 8.64887 24.576 8.45101 24.3359C7.9277 23.6985 7.15459 23.3334 6.33073 23.3334C5.35916 23.3334 4.45094 23.8546 3.96095 24.6919C3.92132 24.7595 3.77751 24.9805 3.59316 24.9805H3.37609C3.17883 24.9805 3.01851 24.8201 3.01851 24.6229V3.37804C3.01851 3.18079 3.17883 3.02046 3.37609 3.02046H3.59316C3.77751 3.02046 3.92132 3.24144 3.96035 3.30779C4.45094 4.14635 5.35916 4.66757 6.33073 4.66757C7.15489 4.66757 7.928 4.30248 8.45101 3.66537C8.64887 3.42458 9.0644 3.02046 9.61924 3.02046C10.1741 3.02046 10.5896 3.42458 10.7875 3.66477C11.8347 4.94018 13.9829 4.93868 15.0289 3.66537C15.2268 3.42458 15.6423 3.02046 16.2047 3.02046C16.7595 3.02046 17.1744 3.42428 17.3729 3.66597C17.8971 4.30248 18.6699 4.66757 19.4932 4.66757C20.4635 4.66757 21.3718 4.14695 21.8635 3.30779C21.9026 3.24083 22.0458 3.02046 22.2301 3.02046H22.4247C22.6219 3.02046 22.7823 3.18079 22.7823 3.37804V24.6229Z" fill="#1B8354"/>
<path d="M5.2171 15.1005H16.1971V17.2964H5.2171V15.1005ZM5.2168 19.4921H20.5836V21.688H5.2168V19.4921ZM16.1941 8.51235H17.9355L15.418 11.0301L16.9705 12.5827L19.4883 10.0652V11.8066H21.6843V6.31641H16.1941V8.51235Z" fill="#1B8354"/>
</svg>
