<svg width="31" height="30" viewBox="0 0 31 30" fill="none" xmlns="http://www.w3.org/2000/svg">
<path d="M4.2117 10.308V22.7693M11.2117 10.308V22.7693M18.9895 10.308V22.7693M25.9895 10.308V22.7693M1.10059 25.2616V26.5077C1.10059 27.3802 1.10059 27.8163 1.27013 28.1495C1.41927 28.4427 1.65724 28.681 1.94993 28.8302C2.28268 29 2.71829 29 3.58947 29H26.6117C27.483 29 27.9185 29 28.2513 28.8302C28.544 28.681 28.7819 28.4427 28.931 28.1495C29.1006 27.8163 29.1006 27.3802 29.1006 26.5077V25.2616C29.1006 24.3893 29.1006 23.953 28.931 23.6198C28.7819 23.3268 28.544 23.0885 28.2513 22.9391C27.9185 22.7693 27.483 22.7693 26.6117 22.7693H3.58947C2.71829 22.7693 2.28268 22.7693 1.94993 22.9391C1.65724 23.0885 1.41927 23.3268 1.27013 23.6198C1.10059 23.953 1.10059 24.3893 1.10059 25.2616ZM14.5607 1.08214L3.04956 3.64365C2.35413 3.79839 2.00642 3.87577 1.74686 4.06301C1.51793 4.22817 1.33817 4.45258 1.22682 4.7122C1.10059 5.00652 1.10059 5.36321 1.10059 6.07656V7.81574C1.10059 8.68811 1.10059 9.12431 1.27013 9.45751C1.41927 9.7506 1.65724 9.98889 1.94993 10.1382C2.28268 10.308 2.71829 10.308 3.58947 10.308H26.6117C27.483 10.308 27.9185 10.308 28.2513 10.1382C28.544 9.98889 28.7819 9.7506 28.931 9.45751C29.1006 9.12431 29.1006 8.68811 29.1006 7.81574V6.07657C29.1006 5.36321 29.1006 5.00653 28.9743 4.7122C28.8631 4.45258 28.6832 4.22817 28.4543 4.06301C28.1948 3.87577 27.8471 3.79839 27.1516 3.64365L15.6405 1.08214C15.4391 1.03731 15.3383 1.0149 15.2365 1.00596C15.146 0.998014 15.0552 0.998014 14.9646 1.00596C14.8629 1.0149 14.7621 1.03731 14.5607 1.08214Z" stroke="#067647" stroke-width="2" stroke-linecap="round" stroke-linejoin="round"/>
</svg>
