<svg width="29" height="28" viewBox="0 0 29 28" fill="none" xmlns="http://www.w3.org/2000/svg">
<path fill-rule="evenodd" clip-rule="evenodd" d="M10.2352 25.5207H8.73937C8.2094 25.5207 7.77929 25.9508 7.77929 26.4808C7.77929 27.0108 8.2094 27.4409 8.73937 27.4409H20.2604C20.7903 27.4409 21.2204 27.0108 21.2204 26.4808C21.2204 25.9508 20.7903 25.5207 20.2604 25.5207H18.7645C18.0896 24.7344 17.6105 23.8252 17.4444 22.6405H26.7889C27.3486 22.6405 27.8863 22.4177 28.2828 22.0222C28.6784 21.6257 28.9011 21.088 28.9011 20.5283C28.9011 17.3859 28.9011 8.69337 28.9011 5.55102C28.9011 4.99129 28.6784 4.45364 28.2828 4.05713C27.8863 3.66158 27.3486 3.43884 26.7889 3.43884H22.6913L21.9693 1.81246C21.6304 1.05016 20.8738 0.558594 20.0395 0.558594H8.98131C8.147 0.558594 7.39046 1.05016 7.05155 1.81246L6.3286 3.43884H2.21081C1.65108 3.43884 1.11344 3.66158 0.716923 4.05713C0.321369 4.45364 0.0986328 4.99129 0.0986328 5.55102V20.5283C0.0986328 21.088 0.321369 21.6257 0.716923 22.0222C1.11344 22.4177 1.65108 22.6405 2.21081 22.6405H11.5553C11.3892 23.8252 10.9101 24.7344 10.2352 25.5207ZM16.4133 25.5207C15.9419 24.6979 15.6232 23.7599 15.5079 22.6405H13.4918C13.3766 23.7599 13.0578 24.6979 12.5864 25.5207H16.4133ZM2.21081 20.7203H26.7889C26.8398 20.7203 26.8888 20.7002 26.9243 20.6637C26.9608 20.6282 26.9809 20.5792 26.9809 20.5283V5.55102C26.9809 5.50013 26.9608 5.45118 26.9243 5.41565C26.8888 5.37917 26.8398 5.359 26.7889 5.359H23.5381C23.7887 5.92833 23.9932 6.39974 24.093 6.64072C24.2178 6.92874 24.2668 7.24269 24.2351 7.55471C24.2341 7.56431 24.2332 7.57487 24.2313 7.58447C24.118 8.4399 23.6619 9.18877 23.0052 9.6861V16.688C23.0052 17.2477 22.7825 17.7853 22.3869 18.1818C21.9904 18.5774 21.4537 18.8001 20.893 18.8001H8.13164C7.57095 18.8001 7.03427 18.5774 6.63775 18.1818C6.2422 17.7853 6.01946 17.2477 6.01946 16.688V9.69089C5.36181 9.19644 4.9 8.45431 4.77039 7.60464C4.76847 7.58832 4.76655 7.57199 4.76463 7.55471C4.73295 7.23405 4.78576 6.90953 4.91633 6.61671L5.4751 5.359H2.21081C2.15993 5.359 2.11097 5.37917 2.07545 5.41565C2.03896 5.45118 2.0188 5.50013 2.0188 5.55102V20.5283C2.0188 20.5792 2.03896 20.6282 2.07545 20.6637C2.11097 20.7002 2.15993 20.7203 2.21081 20.7203ZM21.0851 10.3255C20.2383 10.3217 19.4692 9.98275 18.9047 9.43455C18.3363 9.98563 17.5616 10.3255 16.7071 10.3255C15.8536 10.3255 15.0788 9.98563 14.5104 9.43455C13.9421 9.98563 13.1673 10.3255 12.3128 10.3255C11.4593 10.3255 10.6845 9.98563 10.1161 9.43455C9.55256 9.98179 8.78546 10.3198 7.93963 10.3255V16.688C7.93963 16.7388 7.95979 16.7878 7.99531 16.8234C8.0318 16.8598 8.08076 16.88 8.13164 16.88H20.893C20.9439 16.88 20.9929 16.8598 21.0294 16.8234C21.0649 16.7878 21.0851 16.7388 21.0851 16.688V10.3255ZM12.6911 2.47876H13.5503V7.16875C13.5503 7.85137 12.9964 8.40535 12.3128 8.40535C11.6763 8.40535 11.1501 7.92242 11.0839 7.30221L12.6911 2.47876ZM8.80658 2.59301L6.67999 7.3771C6.79712 7.95891 7.305 8.40535 7.91946 8.40535C8.59727 8.40535 9.14933 7.85809 9.15605 7.18123C9.15413 7.07659 9.17045 6.97001 9.20501 6.86441L10.6672 2.47876H8.98131C8.90546 2.47876 8.83731 2.52388 8.80658 2.59301ZM15.4705 2.47876H16.3298L17.937 7.30221C17.8707 7.92242 17.3446 8.40535 16.7071 8.40535C16.0245 8.40535 15.4705 7.85137 15.4705 7.16875V2.47876ZM22.3207 7.37997C22.1536 6.97578 20.4591 3.1441 20.2143 2.59301C20.1835 2.52388 20.1154 2.47876 20.0395 2.47876H18.3536L19.8158 6.86441C19.8504 6.97001 19.8658 7.07659 19.8648 7.18123C19.8715 7.85809 20.4236 8.40535 21.1014 8.40535C21.712 8.40535 22.2208 7.96178 22.3207 7.37997Z" fill="#1B8354"/>
</svg>
