<svg width="33" height="32" viewBox="0 0 33 32" fill="none" xmlns="http://www.w3.org/2000/svg">
<path d="M26.2998 28C26.102 28 25.9087 28.0586 25.7442 28.1685C25.5798 28.2784 25.4516 28.4346 25.3759 28.6173C25.3002 28.8 25.2804 29.0011 25.319 29.1951C25.3576 29.3891 25.4528 29.5673 25.5927 29.7071C25.7326 29.847 25.9107 29.9422 26.1047 29.9808C26.2987 30.0194 26.4998 29.9996 26.6825 29.9239C26.8652 29.8482 27.0214 29.72 27.1313 29.5556C27.2412 29.3911 27.2998 29.1978 27.2998 29C27.2998 28.7348 27.1944 28.4804 27.0069 28.2929C26.8194 28.1054 26.565 28 26.2998 28Z" fill="#067647"/>
<path d="M22.2998 28C22.102 28 21.9087 28.0586 21.7442 28.1685C21.5798 28.2784 21.4516 28.4346 21.3759 28.6173C21.3002 28.8 21.2804 29.0011 21.319 29.1951C21.3576 29.3891 21.4528 29.5673 21.5927 29.7071C21.7326 29.847 21.9107 29.9422 22.1047 29.9808C22.2987 30.0194 22.4998 29.9996 22.6825 29.9239C22.8652 29.8482 23.0214 29.72 23.1313 29.5556C23.2412 29.3911 23.2998 29.1978 23.2998 29C23.2998 28.7348 23.1944 28.4804 23.0069 28.2929C22.8194 28.1054 22.565 28 22.2998 28Z" fill="#067647"/>
<path d="M30.1298 20.44C30.0381 20.3043 29.9144 20.1932 29.7697 20.1165C29.625 20.0398 29.4636 19.9998 29.2998 20H21.5598L21.2998 17.88C21.2703 17.6361 21.1521 17.4116 20.9677 17.2493C20.7832 17.087 20.5455 16.9983 20.2998 17H18.2998C18.0346 17 17.7802 17.1054 17.5927 17.2929C17.4052 17.4805 17.2998 17.7348 17.2998 18C17.2998 18.2652 17.4052 18.5196 17.5927 18.7071C17.7802 18.8947 18.0346 19 18.2998 19H19.4198L20.2998 26.12C20.3293 26.3639 20.4475 26.5885 20.632 26.7508C20.8164 26.9131 21.0541 27.0018 21.2998 27H27.2998C27.5001 27.0002 27.6958 26.9403 27.8616 26.8279C28.0274 26.7156 28.1557 26.5561 28.2298 26.37L30.2298 21.37C30.2902 21.2186 30.3127 21.0547 30.2952 20.8926C30.2778 20.7305 30.221 20.5751 30.1298 20.44ZM26.6198 25H22.1798L21.8098 22H27.8098L26.6198 25Z" fill="#067647"/>
<path d="M12.2998 6C11.1131 6 9.95308 6.35189 8.96639 7.01118C7.97969 7.67047 7.21066 8.60754 6.75653 9.7039C6.3024 10.8003 6.18358 12.0067 6.4151 13.1705C6.64661 14.3344 7.21805 15.4035 8.05717 16.2426C8.89628 17.0818 9.96538 17.6532 11.1293 17.8847C12.2932 18.1162 13.4996 17.9974 14.5959 17.5433C15.6923 17.0892 16.6293 16.3201 17.2886 15.3334C17.9479 14.3467 18.2998 13.1867 18.2998 12C18.2998 10.4087 17.6677 8.88258 16.5424 7.75736C15.4172 6.63214 13.8911 6 12.2998 6ZM12.2998 16C11.5087 16 10.7353 15.7654 10.0775 15.3259C9.41973 14.8864 8.90704 14.2616 8.60429 13.5307C8.30154 12.7998 8.22233 11.9956 8.37667 11.2196C8.53101 10.4437 8.91197 9.73098 9.47138 9.17157C10.0308 8.61216 10.7435 8.2312 11.5194 8.07686C12.2954 7.92252 13.0996 8.00173 13.8305 8.30448C14.5614 8.60723 15.1862 9.11992 15.6257 9.77772C16.0652 10.4355 16.2998 11.2089 16.2998 12C16.2998 13.0609 15.8784 14.0783 15.1282 14.8284C14.3781 15.5786 13.3607 16 12.2998 16Z" fill="#067647"/>
<path d="M16.4798 23C15.2686 24.7166 13.8663 26.2901 12.2998 27.69C10.2998 25.93 4.2998 19.89 4.2998 12C4.2998 9.87827 5.14266 7.84344 6.64295 6.34315C8.14324 4.84285 10.1781 4 12.2998 4C14.4215 4 16.4564 4.84285 17.9567 6.34315C19.457 7.84344 20.2998 9.87827 20.2998 12C20.3023 12.622 20.2622 13.2435 20.1798 13.86C20.1614 13.9913 20.1691 14.125 20.2023 14.2533C20.2356 14.3817 20.2938 14.5023 20.3737 14.6081C20.4536 14.714 20.5535 14.8031 20.6678 14.8703C20.7821 14.9375 20.9085 14.9816 21.0398 15C21.305 15.0371 21.5741 14.9674 21.7879 14.8061C21.8938 14.7262 21.9829 14.6263 22.0501 14.512C22.1173 14.3977 22.1614 14.2713 22.1798 14.14C22.2672 13.4301 22.3073 12.7152 22.2998 12C22.2998 9.34784 21.2462 6.8043 19.3709 4.92893C17.4955 3.05357 14.952 2 12.2998 2C9.64764 2 7.1041 3.05357 5.22874 4.92893C3.35337 6.8043 2.2998 9.34784 2.2998 12C2.2998 22.37 11.2998 29.49 11.6898 29.79C11.8647 29.9246 12.0791 29.9976 12.2998 29.9976C12.5205 29.9976 12.7349 29.9246 12.9098 29.79C14.8955 28.1487 16.6483 26.2445 18.1198 24.13C18.2419 23.9126 18.2784 23.6574 18.222 23.4144C18.1657 23.1715 18.0206 22.9584 17.8153 22.8169C17.6099 22.6754 17.3591 22.6158 17.112 22.6496C16.865 22.6835 16.6395 22.8085 16.4798 23Z" fill="#067647"/>
</svg>
