<svg width="31" height="30" viewBox="0 0 31 30" fill="none" xmlns="http://www.w3.org/2000/svg">
<path d="M30.2698 6.74923C30.1798 6.37923 29.8698 6.08923 29.4998 6.01923L26.3298 5.38923L27.0098 4.70923C27.3998 4.31923 27.3998 3.68923 27.0098 3.29923C26.6198 2.90923 25.9898 2.90923 25.5998 3.29923L24.9198 3.97923L24.2798 0.799231C24.1998 0.419231 23.9198 0.119231 23.5498 0.0292308C23.1798 -0.0607693 22.7798 0.0592308 22.5398 0.359231L17.5398 6.35923C17.3398 6.60923 17.2598 6.92923 17.3398 7.23923L18.1198 10.3792C16.2398 8.89923 13.8698 7.99923 11.2998 7.99923C5.2298 7.99923 0.299805 12.9292 0.299805 18.9992C0.299805 25.0692 5.2298 29.9992 11.2998 29.9992C17.3698 29.9992 22.2998 25.0692 22.2998 18.9992C22.2998 16.4292 21.3998 14.0592 19.9198 12.1892L23.0598 12.9692C23.1398 12.9892 23.2198 12.9992 23.2998 12.9992C23.5298 12.9992 23.7598 12.9192 23.9398 12.7692L29.9398 7.76923C30.2398 7.51923 30.3598 7.12923 30.2698 6.74923ZM22.7298 3.24923L23.2098 5.66923L19.8398 9.03923L19.3898 7.24923L22.7298 3.24923ZM11.2998 27.9992C6.3398 27.9992 2.2998 23.9592 2.2998 18.9992C2.2998 14.0392 6.3398 9.99923 11.2998 9.99923C13.4198 9.99923 15.3698 10.7392 16.9098 11.9792L14.7698 14.1192C13.7898 13.4192 12.5898 12.9992 11.2998 12.9992C7.9898 12.9992 5.2998 15.6892 5.2998 18.9992C5.2998 22.3092 7.9898 24.9992 11.2998 24.9992C14.6098 24.9992 17.2998 22.3092 17.2998 18.9992C17.2998 17.7092 16.8798 16.5092 16.1898 15.5292L18.3298 13.3892C19.5598 14.9292 20.2998 16.8792 20.2998 18.9992C20.2998 23.9592 16.2598 27.9992 11.2998 27.9992ZM15.2998 18.9992C15.2998 21.2092 13.5098 22.9992 11.2998 22.9992C9.0898 22.9992 7.2998 21.2092 7.2998 18.9992C7.2998 16.7892 9.0898 14.9992 11.2998 14.9992C12.0398 14.9992 12.7198 15.2192 13.3198 15.5692L11.8098 17.0792C11.6498 17.0292 11.4798 16.9992 11.2998 16.9992C10.1998 16.9992 9.2998 17.8992 9.2998 18.9992C9.2998 20.0992 10.1998 20.9992 11.2998 20.9992C12.3998 20.9992 13.2998 20.0992 13.2998 18.9992C13.2998 18.8192 13.2698 18.6492 13.2298 18.4892L14.7398 16.9792C15.0798 17.5792 15.2998 18.2592 15.2998 18.9992ZM23.0498 10.9092L21.2598 10.4592L24.6298 7.08923L27.0498 7.56923L23.0498 10.9092Z" fill="#1B8354"/>
</svg>
