<svg width="16" height="16" viewBox="0 0 16 16" fill="none" xmlns="http://www.w3.org/2000/svg">
<g id="teenyicons:pin-solid">
<path id="Vector" fill-rule="evenodd" clip-rule="evenodd" d="M1.06689 6.92907C1.06774 5.09088 1.79863 3.3283 3.09882 2.02891C4.39901 0.729515 6.16205 -0.000282954 8.00023 8.22966e-08C11.8285 8.22966e-08 14.9336 3.10293 14.9336 6.92907C14.9336 9.78133 13.5064 12.0416 11.9768 13.5691C11.3006 14.2482 10.5428 14.8408 9.72076 15.3333C9.37729 15.536 9.05623 15.696 8.77676 15.8048C8.51329 15.9093 8.23703 15.9904 8.00023 15.9904C7.76343 15.9904 7.48716 15.9093 7.22369 15.8048C6.89743 15.672 6.58183 15.5144 6.2797 15.3333C5.45766 14.8408 4.69988 14.2481 4.02369 13.5691C2.49409 12.0416 1.06689 9.78133 1.06689 6.92907ZM8.00023 4.26347C7.29298 4.26347 6.61471 4.54442 6.11461 5.04452C5.61451 5.54461 5.33356 6.22289 5.33356 6.93013C5.33356 7.63738 5.61451 8.31565 6.11461 8.81575C6.61471 9.31585 7.29298 9.5968 8.00023 9.5968C8.70747 9.5968 9.38575 9.31585 9.88585 8.81575C10.3859 8.31565 10.6669 7.63738 10.6669 6.93013C10.6669 6.22289 10.3859 5.54461 9.88585 5.04452C9.38575 4.54442 8.70747 4.26347 8.00023 4.26347Z" fill="#979797"/>
</g>
</svg>
