<svg width="49" height="48" viewBox="0 0 49 48" fill="none" xmlns="http://www.w3.org/2000/svg">
<rect x="0.25" width="48" height="48" rx="10" fill="#F3F4F6"/>
<path d="M22.25 26H14.25V29H22.25V26Z" fill="#737B8B"/>
<path d="M26.25 31H14.25V34H26.25V31Z" fill="#737B8B"/>
<path d="M35.9167 10H12.5833C11.9647 10.0008 11.3717 10.2469 10.9343 10.6843C10.4969 11.1217 10.2508 11.7147 10.25 12.3333V35.6667C10.2508 36.2853 10.4969 36.8783 10.9343 37.3157C11.3717 37.7531 11.9647 37.9992 12.5833 38H35.9167C36.5353 37.9992 37.1283 37.7531 37.5657 37.3157C38.0031 36.8783 38.2492 36.2853 38.25 35.6667V12.3333C38.2492 11.7147 38.0031 11.1217 37.5657 10.6843C37.1283 10.2469 36.5353 10.0008 35.9167 10ZM26.5833 12.3333V17H21.9167V12.3333H26.5833ZM12.5833 35.6667V12.3333H19.5833V19.3333H28.9167V12.3333H35.9167L35.9181 35.6667H12.5833Z" fill="#737B8B"/>
</svg>
